<svg id="Layer_1" data-name="Layer 1" xmlns="http://www.w3.org/2000/svg" viewBox="0 0 536.35 734.24"><defs><style>.cls-1{fill:#eab527;}</style></defs><path class="cls-1" d="M536.35,0H404.63L268.43,145.59,130.87,0H0V496.07H108.12A485.92,485.92,0,0,0,66,682a416,416,0,0,0,407.82-2.27c-1.16-11-2.93-25.86-5.65-43.49-2.68-17.46-5.26-32.13-6.83-38.88-3.82-16.34-12.51-42.59-32.58-101.27H536.35ZM435.69,444.79c-9.55-30.61-24.77-81.1-36.11-126.82-6.46-26-11.74-50.39-13.88-68.64,0,0-25.55,39.37-25.55,109.36,0,32.35,17.52,77.4,36.39,127.39,8.09,21.28,16.41,43.58,23.76,66.16,12.14,37.18,21.4,75.15,22.13,111.1.06,1.57.06,3.15.06,4.72,0,0-21.29,16.74-69.76,28.59a196,196,0,0,0,6-33.31A191.11,191.11,0,0,0,342.57,532.7c1,2.69,2,5.61,3,8.65s2,6.29,3,9.71a275.51,275.51,0,0,1,7.75,34.83c.67,4.26,1.29,8.7,1.74,13.25-.06.06,0,.11,0,.17a269.57,269.57,0,0,1,1.52,32.86c-.06,2.86-.12,5.67-.23,8.42s-.34,5.17-.5,7.7c-.17,2.36-.4,4.66-.62,6.91-.06.67-.11,1.4-.23,2.08-.17,1.68-.33,3.42-.56,5.05a5.78,5.78,0,0,1-.11,1l-1.57,10.56c-.28,1.74-.57,3.37-.9,5.06-3.37,15.72-3.82,17.41-4.72,20.78a475.16,475.16,0,0,1-79.87,6.91,469.25,469.25,0,0,1-83.35-7.3c-.51-4.72-1-9.61-1.41-14.61-.22-2.41-.39-4.83-.62-7.3v-.51c-.16-2.52-.33-5.11-.5-7.69-.11-2-.23-3.93-.34-5.9-.11-3-.28-6.12-.34-9.21a576,576,0,0,1,35.45-217.87,628.17,628.17,0,0,0-71.84,227.08q-1.7,14.83-2.64,28.14c-35.22-11.06-50.83-23.42-50.83-23.42,0-1.57,0-3.15,0-4.72.73-36,10-73.92,22.13-111.1,7.47-22.75,15.84-45.16,24-66.67,18.76-49.82,36.23-94.64,36.23-126.88,0-70-25.44-109.36-25.44-109.36-2.14,18.37-7.42,42.8-13.88,68.86-11.4,45.55-26.68,96-36.28,126.6H27.52s81.78-286,90.38-297.63c8.81-11.63,77.4-34.94,77.4-34.94s5.16,32.13,27.69,40.05c22.63,8.09,30.72,21.91,32.85,57a278.8,278.8,0,0,0,12.36,64.88s2.53-7.53,5.39-19.38a272.47,272.47,0,0,0,7.14-45.5c2.13-35.1,10.22-48.92,32.63-57,22.75-7.92,27.8-40.05,27.8-40.05s68.7,23.31,77.29,34.94c8.82,11.68,90.49,297.63,90.49,297.63Z"/></svg>