<svg id="Layer_1" data-name="Layer 1" xmlns="http://www.w3.org/2000/svg" xmlns:xlink="http://www.w3.org/1999/xlink" viewBox="0 0 1280 273.63"><defs><style>.cls-1{fill:url(#linear-gradient);}</style><linearGradient id="linear-gradient" y1="136.81" x2="1280" y2="136.81" gradientUnits="userSpaceOnUse"><stop offset="0" stop-color="#eab527"/><stop offset="0.17" stop-color="#e6b129"/><stop offset="0.35" stop-color="#d9a630"/><stop offset="0.54" stop-color="#c3933a"/><stop offset="0.59" stop-color="#bb8c3e"/><stop offset="0.69" stop-color="#c59d4a"/><stop offset="0.86" stop-color="#e0c86b"/><stop offset="1" stop-color="#f7ee87"/></linearGradient></defs><path class="cls-1" d="M251.42,41.69h19.79l17.13,26.52,17-26.52h19.9V121h-21L305,73.49,288.34,96.57,271.63,73.49l.89,47.47h-21.1Zm143,0h12.75l4.8,17.85H395.8q-11.64,0-18.38,4.29T367.13,77.67h20.21V62.78h21.42V121H387.34v-25H365a30.67,30.67,0,0,0,.58,6.08,61.33,61.33,0,0,0,1.77,6.66,60.18,60.18,0,0,0,5.8,12.27l-16.92,11.12a82.83,82.83,0,0,1-9.53-19.66,64.23,64.23,0,0,1-3.21-19.82,59.7,59.7,0,0,1,3.76-21.25,47,47,0,0,1,10.7-16.91,40.24,40.24,0,0,1,15.49-9.58A63.5,63.5,0,0,1,394.39,41.69Zm37.75,21.09h21.31v39.9a24.82,24.82,0,0,0,17.15-9,29.19,29.19,0,0,0,6.71-19.42q0-7-3.73-10.84t-10.73-3.84H428.43l4.81-17.85h29.4a61,61,0,0,1,15.56,1.59,27.06,27.06,0,0,1,10.34,5.4A25.45,25.45,0,0,1,495.85,59a38.75,38.75,0,0,1,2.51,14.36,48.17,48.17,0,0,1-4.08,19.48,46.4,46.4,0,0,1-11.43,16,43.8,43.8,0,0,1-15.54,9.22q-8.49,2.85-21,2.85H432.14ZM537.3,41.69V66.54h21.26V41.69h21.3V121h-21.3V84.82H537.3v19.47q0,3.28.08,6.06c0,1.84.11,3.53.18,5.06a18.28,18.28,0,0,0,.24,3.11,12.2,12.2,0,0,0,.65,2.43l-18.38,11.74a23.58,23.58,0,0,1-3.16-9.08,114.3,114.3,0,0,1-1-17.86V41.69Zm111.54,0h12.74l4.8,17.85H650.25q-11.65,0-18.38,4.29T621.58,77.67h20.21V61.53h0a18.66,18.66,0,0,1,4.15-.47H663.2V121H641.79v-25H619.44A31.45,31.45,0,0,0,620,102a64,64,0,0,0,1.78,6.66A60.66,60.66,0,0,0,627.58,121l-16.91,11.12a82.87,82.87,0,0,1-9.54-19.66,64.23,64.23,0,0,1-3.21-19.82,59.92,59.92,0,0,1,3.76-21.25,47,47,0,0,1,10.71-16.91,40.13,40.13,0,0,1,15.48-9.58A63.52,63.52,0,0,1,648.84,41.69Zm29.55,0h21.82L712.28,94l12.27-52.32h21.72L724.34,121h-24Zm83.07,0h21.83V121H761.46Zm134,18.12H874.6a6,6,0,0,0-3.08.62,2.24,2.24,0,0,0-1,2,5.23,5.23,0,0,0,.05.83,4,4,0,0,0,.45.92,15.51,15.51,0,0,0,1.43,1.85L889.8,85.45a35.4,35.4,0,0,1,5.85,8.72,24.92,24.92,0,0,1,1.41,4.25,18.94,18.94,0,0,1,.52,4.36,19.14,19.14,0,0,1-.42,4.18,18.4,18.4,0,0,1-1.35,3.84,15.88,15.88,0,0,1-5.17,6.19,19.36,19.36,0,0,1-7.26,3,67.62,67.62,0,0,1-13.27,1H851.84l-5.23-18.28H869.7a4.64,4.64,0,0,0,2.79-.73,2.59,2.59,0,0,0,1-2.2,3.42,3.42,0,0,0-.44-1.41,9.48,9.48,0,0,0-1.17-1.77l-19-21.15a25.61,25.61,0,0,1-4.44-7.23,21.36,21.36,0,0,1-1.62-8.07,20.53,20.53,0,0,1,.94-6.16,17.49,17.49,0,0,1,2.77-5.38,16,16,0,0,1,7.36-5.28,29.27,29.27,0,0,1,5.62-1.2,65.19,65.19,0,0,1,7.8-.41h19.33ZM951.57,121H930.31V60.12H908.17L913,41.69h56l4.7,18.43H951.57Zm69.76-80.21q18.48,0,27.2,7.46t8.72,23.45a68.15,68.15,0,0,1-3.5,21.67,56.58,56.58,0,0,1-9.66,18.12,32.64,32.64,0,0,1-10.31,8.62,26.75,26.75,0,0,1-12.45,2.92,27.86,27.86,0,0,1-12.59-2.84,31.14,31.14,0,0,1-10.34-8.7,57.92,57.92,0,0,1-9.66-18.17,68,68,0,0,1-3.5-21.62q0-15.93,8.75-23.42T1021.33,40.75Zm-14.57,32.16a56.28,56.28,0,0,0,1.12,11.2,51,51,0,0,0,3.37,10.63,22.93,22.93,0,0,0,4.67,7.29,7.78,7.78,0,0,0,5.41,2.58,6.74,6.74,0,0,0,3.65-1.17,11.13,11.13,0,0,0,3.19-3.22,47.09,47.09,0,0,0,5.53-12.5,51.15,51.15,0,0,0,2-14.23q0-8-3.19-11.23T1021.33,59c-5.37,0-9.13,1.06-11.31,3.16S1006.76,67.87,1006.76,72.91Zm116.13,14a191.92,191.92,0,0,0,11,18.17,118.88,118.88,0,0,0,12,14.88l-16.92,12.59a164.63,164.63,0,0,1-16.5-22.14,232.1,232.1,0,0,1-14.2-27q9.6-6.22,14-10.84t4.39-8.17a4.31,4.31,0,0,0-1.62-3.55,7.08,7.08,0,0,0-4.55-1.31h-37.65l4.81-17.85h37.13q11.91,0,18.51,5.3t6.61,14.8a23.82,23.82,0,0,1-4.16,13.55Q1131.51,81.52,1122.89,87Zm-46.43-25.89h21.31V121h-21.31Zm136-1.72h-31.75V71.66h29l-5.28,17.86h-23.7V103.1h34.41L1209.41,121h-50V41.69h48.25Zm65.42.47H1257a6,6,0,0,0-3.08.62,2.24,2.24,0,0,0-1,2,5.23,5.23,0,0,0,0,.83,4,4,0,0,0,.45.92,15.51,15.51,0,0,0,1.43,1.85l17.34,19.38a35.4,35.4,0,0,1,5.85,8.72,24.92,24.92,0,0,1,1.41,4.25,18.94,18.94,0,0,1,.52,4.36,19.14,19.14,0,0,1-.42,4.18,17.89,17.89,0,0,1-1.36,3.84,15.88,15.88,0,0,1-5.17,6.19,19.31,19.31,0,0,1-7.25,3,67.62,67.62,0,0,1-13.27,1h-18.27L1229,102.68h23.09a4.64,4.64,0,0,0,2.79-.73,2.59,2.59,0,0,0,1-2.2,3.42,3.42,0,0,0-.44-1.41,10,10,0,0,0-1.17-1.77l-19-21.15a25.61,25.61,0,0,1-4.44-7.23,21.36,21.36,0,0,1-1.62-8.07,20.53,20.53,0,0,1,.94-6.16,17.49,17.49,0,0,1,2.77-5.38,15.94,15.94,0,0,1,7.36-5.28,28.94,28.94,0,0,1,5.62-1.2,65.19,65.19,0,0,1,7.8-.41h19.32Zm-880,107.69h735.73v-1.75H397.85m112.47,66.19V202.83H499.11v-2.05h24.7v2.05H512.59v29.11Zm24.44,0V200.78H537v31.16Zm2-14.82v-2h21.37v2Zm21.1,14.82V200.78h2.27v31.16Zm18.48,0V200.78h20.83v2.05H578.61V229.9h19.22v2Zm2-14.82v-2h16.87v2Zm49.9,14.82V200.78h20.83v2.05H630.51V229.9h19.22v2Zm2-14.82v-2h16.87v2Zm39.08,14.82V202.83H658.1v-2.05h24.71v2.05H671.59v29.11Zm24.44,0V200.78H696v31.16Zm2-14.82v-2h21.37v2Zm21.1,14.82V200.78h2.27v31.16Zm18.47,0V200.78h1.92l22.21,28.36h-1V200.78h2.27v31.16h-1.87l-22.25-28.35h1v28.35Zm41.58,0V200.78h2.27v31.16Zm31.64.22a17.37,17.37,0,0,1-6.43-1.17,15.53,15.53,0,0,1-5.14-3.32,15,15,0,0,1-3.38-5,17.11,17.11,0,0,1,0-12.59,14.79,14.79,0,0,1,3.4-5,15.68,15.68,0,0,1,5.14-3.32,17,17,0,0,1,6.41-1.18,17.62,17.62,0,0,1,6.17,1.07,12.84,12.84,0,0,1,4.92,3.25l-1.43,1.47a12.08,12.08,0,0,0-4.43-2.83,15.08,15.08,0,0,0-5.14-.87,14.83,14.83,0,0,0-5.54,1,13.11,13.11,0,0,0-4.45,2.89,13.42,13.42,0,0,0-2.94,4.36,14.7,14.7,0,0,0,0,10.86,13.22,13.22,0,0,0,7.39,7.26,14.83,14.83,0,0,0,5.54,1,15.32,15.32,0,0,0,5.14-.86,11.84,11.84,0,0,0,4.43-2.88l1.43,1.47a12.88,12.88,0,0,1-4.92,3.27A17.19,17.19,0,0,1,808.55,232.16Zm40.38-.22V200.78h13c3.36,0,6,.69,7.88,2.05a6.85,6.85,0,0,1,2.85,5.92,7,7,0,0,1-4.52,6.88,12.36,12.36,0,0,1-4.74.87l.8-.89a14.44,14.44,0,0,1,5.48.93,7.42,7.42,0,0,1,3.45,2.72,7.92,7.92,0,0,1,1.18,4.45,7.17,7.17,0,0,1-2.85,6.07q-2.85,2.16-8.64,2.16Zm2.27-2h11.61q4.5,0,6.86-1.53a5.45,5.45,0,0,0,2.36-4.92,5.38,5.38,0,0,0-2.36-4.87q-2.35-1.54-6.86-1.54H850.93v-2h10.9a10.81,10.81,0,0,0,6.28-1.56,6,6,0,0,0,0-9.3,10.81,10.81,0,0,0-6.28-1.56H851.2Zm36.54,2V200.78h11.17q5.88,0,9.22,2.76a9.52,9.52,0,0,1,3.34,7.75,10.05,10.05,0,0,1-1.52,5.59,9.82,9.82,0,0,1-4.32,3.6,16.12,16.12,0,0,1-6.72,1.27H889l1-1.07v11.26ZM890,220.82l-1-1.07h9.92c3.36,0,5.9-.75,7.64-2.23a8.79,8.79,0,0,0,0-12.48c-1.74-1.47-4.28-2.21-7.64-2.21H889l1-1.11Zm19.36,11.12-8.1-11.3h2.59l8.1,11.3Zm10.55,0,14.34-31.16h2.27l14.33,31.16h-2.45l-13.53-29.73h1l-13.49,29.73Zm5.26-8.77.75-1.91h18.65l.76,1.91Zm36.67,8.77V200.78h1.92L986,229.14h-1V200.78h2.26v31.16h-1.87L963.1,203.59h1v28.35Zm41.58,0V200.78h12.33a18.06,18.06,0,0,1,8.68,2,14.52,14.52,0,0,1,5.81,5.52,16.71,16.71,0,0,1,0,16.11,14.65,14.65,0,0,1-5.81,5.52,18.06,18.06,0,0,1-8.68,2Zm2.27-2h9.88a16,16,0,0,0,7.66-1.74,12.56,12.56,0,0,0,5-4.79,14.69,14.69,0,0,0,0-14,12.6,12.6,0,0,0-5-4.78,16,16,0,0,0-7.66-1.74h-9.88ZM199.88,0H150.79L100,54.26,48.77,0H0V184.87H40.29a180.82,180.82,0,0,0-15.7,69.28,155,155,0,0,0,152-.84c-.44-4.08-1.1-9.64-2.11-16.21s-2-12-2.55-14.49c-1.42-6.09-4.66-15.87-12.14-37.74h40.11ZM162.37,165.76c-3.56-11.41-9.23-30.23-13.46-47.26a221.52,221.52,0,0,1-5.17-25.58s-9.52,14.67-9.52,40.75c0,12.06,6.53,28.85,13.56,47.47,3,7.94,6.11,16.25,8.85,24.66,4.52,13.86,8,28,8.25,41.41,0,.58,0,1.17,0,1.75,0,0-7.93,6.24-26,10.66a71.38,71.38,0,0,0-11.24-61.1c.38,1,.76,2.09,1.13,3.22s.76,2.35,1.11,3.62a101.91,101.91,0,0,1,2.89,13c.25,1.59.48,3.24.65,4.94,0,0,0,0,0,.06a99.92,99.92,0,0,1,.57,12.25c0,1.07,0,2.11-.09,3.14s-.12,1.92-.19,2.87-.14,1.73-.23,2.57c0,.25,0,.52-.08.77-.06.63-.13,1.28-.21,1.89a2.58,2.58,0,0,1,0,.38l-.59,3.93c-.1.65-.21,1.26-.33,1.88-1.26,5.87-1.43,6.49-1.76,7.75a177.12,177.12,0,0,1-29.77,2.57,174.5,174.5,0,0,1-31.06-2.72c-.19-1.76-.35-3.58-.52-5.44-.09-.9-.15-1.8-.23-2.72v-.19c-.07-.94-.13-1.9-.19-2.87,0-.73-.08-1.46-.13-2.19,0-1.13-.1-2.29-.12-3.44a214.4,214.4,0,0,1,13.21-81.19A236.06,236.06,0,0,0,62,211a239.06,239.06,0,0,0-7.14,36.22c-.41,3.68-.75,7.18-1,10.48C40.8,253.57,35,249,35,249c0-.58,0-1.17,0-1.75.27-13.4,3.72-27.55,8.25-41.41,2.78-8.48,5.9-16.83,9-24.84,7-18.57,13.51-35.27,13.51-47.29,0-26.08-9.49-40.75-9.49-40.75a222,222,0,0,1-5.17,25.66c-4.25,17-9.94,35.77-13.52,47.18H10.26S40.73,59.2,43.94,54.84s28.84-13,28.84-13,1.93,12,10.32,14.93S94.55,64.91,95.34,78A103.94,103.94,0,0,0,100,102.17s.94-2.81,2-7.22a101.47,101.47,0,0,0,2.66-17c.79-13.08,3.81-18.23,12.16-21.24s10.36-14.93,10.36-14.93,25.6,8.69,28.8,13,33.72,110.92,33.72,110.92Z"/></svg>